<svg xmlns="http://www.w3.org/2000/svg" viewBox="0 0 144 144"><defs><style>.cls-1{fill:#587d71;}.cls-2{fill:#fff;}</style></defs><g id="Laag_2" data-name="Laag 2"><g id="Laag_1-2" data-name="Laag 1"><circle class="cls-1" cx="72" cy="72" r="72"/><path class="cls-2" d="M73.12,108.33c-11,0-22-.13-33,.08-3.32.06-4.32-1-4.27-4.24.15-10.32,0-20.64.11-31,0-3.06-.9-4.18-4-3.95-1.83.13-4.44,1-5.25-1.52a6.56,6.56,0,0,1,2-7.22c11.79-11,23.44-22.2,35.2-33.26,9.53-9,9.6-9,19-.17q16.74,15.72,33.39,31.54a22.4,22.4,0,0,1,3.42,3.61c2.39,3.65.68,7.39-3.46,7-4.91-.5-5.34,1.8-5.25,5.74.21,9.82,0,19.65.11,29.47,0,3-1,4-4,4C95.76,108.23,84.44,108.33,73.12,108.33ZM71.86,82.12c-.81,1.07-1.62.63-2.4.57-7.12-.55-11.84,3.33-12.7,10.22-.25,2,.2,2.68,2.23,2.67,9.63-.06,19.27-.08,28.9,0,2.47,0,2.57-1,2.28-3.06-.74-5.19-3.34-8.44-8.61-9.52-3-.62-4.26-2-2.23-5.24A14.63,14.63,0,0,0,81.5,67.13c-1-6.08-7.74-9.81-13.13-6.55a5.31,5.31,0,0,0-2.66,4C64.68,71.5,65.36,77.87,71.86,82.12Zm12.21-5.06c5.37-.08,6.35,5.4,7.36,8.44,2,6.09,5.88,5.47,10.33,5.42,2.7,0,2.91-1.35,2.51-3.51-.61-3.27-3.12-4.46-5.73-5.63-1.16-.52-2.84-.59-3-2.23-.2-2,1.66-1.74,2.82-1.92,1.75-.27,1.67-1.19,1.17-2.41a23.33,23.33,0,0,1-1.22-7.81c-.24-4.92-3.77-5.86-7.55-5.82-3.57,0-5,2.62-5.4,6C85,70.66,84.52,73.75,84.07,77.06ZM47.63,91c2-.81,4.87,1.35,6.07-1.91,1.92-5.2,5.95-9.28,7.08-15,.91-4.57.13-10.59-2.88-11.59-2.64-.87-5.67-1.43-7.21,1.22-1.75,3-2.9,6.76-1.18,10.14C51.63,78,52,80.67,46.44,82c-3.55.83-4.13,4.36-3.76,7.3S46,90.29,47.63,91Z"/></g></g></svg>