<svg xmlns="http://www.w3.org/2000/svg" viewBox="0 0 144 144"><defs><style>.cls-1{fill:#587d71;}.cls-2{fill:#fff;}</style></defs><g id="Laag_2" data-name="Laag 2"><g id="Laag_1-2" data-name="Laag 1"><circle class="cls-1" cx="72" cy="72" r="72"/><path class="cls-2" d="M97.47,66.55c-3.67,3.36-4.19,7.76-3.87,12.18.73,10,1.68,19.88,2.71,29.79.63,6,.78,6-5.37,6a22.11,22.11,0,0,1-4,0c-1.83-.34-4.78,1.43-5.11-2.12-.25-2.72-.84-5.7,3.21-6.65,3.3-.77,4.94-3,4.63-6.64s-2.5-4.83-5.68-4.92c-1.7,0-2.27-.84-2.38-2.46-.16-2.31-.61-4.61-.84-6.92-.71-7-1.53-7.79-8.62-7.8C62,77,56,73.48,54.49,65.23c-1.17-6.55-.74-13.18-3.28-19.76-1.57-4.09,1.81-8.62,6.26-10.81a8.82,8.82,0,0,0,4.28-4.46c2.8-5.88,8.3-8.93,14.65-7.93a7.23,7.23,0,0,0,6.25-1.51c7-5.28,15.72-3.31,19.86,4.44a11.42,11.42,0,0,0,5.12,5c8.45,4.53,11.14,14.6,5.87,22.6-1.68,2.56-1.6,4.57-.87,7.29,2.6,9.55-2.78,19.16-11.81,21.65-2.66.74-4.29.59-4.54-2.92A34.8,34.8,0,0,1,97.47,66.55Z"/><path class="cls-2" d="M56.65,97.11q12.75,0,25.48,0c1.82,0,3.92-.3,4.49,2.09s-1.16,3.74-3.22,4.2c-4.09.91-5.14,3.47-4.63,7.27.28,2.07.2,3.87-2.9,4-3.35.09-3.55-1.81-3.18-4.11.73-4.48-1.06-5.7-5.44-5.46-7,.39-14,.29-21,0-3.62-.14-5.25.74-4.81,4.65.24,2.07,1,4.77-2.94,4.88-4.2.11-3.63-2.68-3.36-5,.4-3.5-1.11-5.2-4.3-6.08-2-.54-4-1.58-3.53-4.07s2.81-2.34,4.84-2.34Q44.41,97.13,56.65,97.11Z"/><path class="cls-2" d="M57.11,80c5,0,10,.19,14.94-.06,3.77-.2,6.11.62,6,5-.06,1.8.54,3.62.56,5.43,0,1.29,1.1,3.34-1.22,3.63-1.6.2-3.91,1.19-4.76-1.12C71.67,90.31,69.73,91,68.06,91c-7-.07-13.94-.1-20.91,0-2.22,0-4.85-1.1-6,2.5-.45,1.39-3,.72-4.61.46-2.06-.35-1.07-2.06-1-3.24C36,80,36,80,46.65,80Z"/></g></g></svg>