<svg xmlns="http://www.w3.org/2000/svg" viewBox="0 0 144 144"><defs><style>.cls-1{fill:#587d71;}.cls-2{fill:#fff;}</style></defs><g id="Laag_2" data-name="Laag 2"><g id="Laag_1-2" data-name="Laag 1"><circle class="cls-1" cx="72" cy="72" r="72"/><path class="cls-2" d="M60.15,63.22c2.83.85,3.72,2.59,3.83,5.25.64,15.28,1.45,30.55,2.14,45.83.22,4.73-1.93,6.69-7,6.68s-7.25-1.83-7-6.61c.72-15.94,1.49-31.88,2.53-47.8.19-2.92-.19-4.55-3-5.78a8,8,0,0,1-5.09-8.37C47,45.62,47.5,38.83,48,32c.09-1.29,0-3,1.72-3s1.79,1.67,1.9,3c.42,5.63.86,11.27,1.27,16.9.1,1.33.06,3.17,1.7,3.08s1.45-1.91,1.53-3.26c.3-5,.59-10,1-14.92.15-1.81-.69-4.85,2-4.72,2.51.12,1.71,3.11,1.85,5Q61.6,41.57,62,49c.07,1.23.23,2.74,1.42,2.88,1.72.2,1.88-1.51,2-2.81.39-5.14.65-10.29,1.12-15.41.16-1.72-.23-4.53,1.9-4.62,2.48-.09,1.69,2.74,1.84,4.36q.87,9.43,1.44,18.89C72.07,57.94,68.3,61.32,60.15,63.22Z"/><path class="cls-2" d="M79.17,74.25q0-19.74,0-39.47c0-2.26-.7-5.21,2.27-5.91,2.78-.66,3.92,2.11,5,4.05,4.75,8.24,6.06,17.5,7.49,26.7.43,2.79.66,5.61,1,8.42.24,2.13-.12,4.58-2.16,5.11-3.87,1-3.44,3-3,6.14,1.31,9,2.6,18.12,2.23,27.31a28.83,28.83,0,0,1-2,10.23c-1.34,3.19-3.75,4.47-7.19,3.85s-3.77-3.06-3.75-6C79.21,101.22,79.17,87.74,79.17,74.25Z"/></g></g></svg>