<svg xmlns="http://www.w3.org/2000/svg" viewBox="0 0 144 144"><defs><style>.cls-1{fill:#587d71;}.cls-2{fill:#fff;}</style></defs><g id="Laag_2" data-name="Laag 2"><g id="Laag_1-2" data-name="Laag 1"><circle class="cls-1" cx="72" cy="72" r="72"/><path class="cls-2" d="M46.41,101.9c4,.29,3.56,3.12,3.35,5.89-.26,3.52-2.88,2.84-5.15,3.12-4.84.61-7.42-.78-7.4-6.25.08-21.79-.41-43.59,2.37-65.28.63-5,3.24-6.87,8-6.85q24.23.09,48.44,0c4.76,0,7.34,1.91,8,6.87,2.77,21.7,2.48,43.49,2.24,65.28-.07,5.62-5.62,8.45-10.76,5.91-2.15-1.07-1.43-3.11-1.75-4.82-.58-3.06,2.11-2.71,4.55-3.87ZM71.8,80.82c7.81,0,15.63-.11,23.43.06,3.49.07,4.79-1.25,4.59-4.7-.46-8-.77-15.91-1.07-23.88-.1-2.72-1.34-3.75-4.06-3.73q-22.93.1-45.87,0c-2.76,0-3.91,1.1-4,3.78-.3,8-.61,15.93-1.07,23.88-.21,3.5,1.2,4.72,4.63,4.65C56.18,80.72,64,80.82,71.8,80.82Zm-.2-37.27c4.15,0,8.31-.09,12.46,0,2.41.06,3.16-1,3.18-3.27s-1.11-2.74-3.08-2.73q-12.21.08-24.41,0c-2.06,0-3.5.21-3.44,2.88,0,2.42,1.06,3.18,3.34,3.12C63.63,43.47,67.62,43.55,71.6,43.55ZM49,93.55h3.15c1.77,0,3.57-.25,3.6-2.45,0-1.89-1.59-2.22-3.17-2.42-1.81-.23-3.59-.7-5.4-.9-1.44-.16-3.15-.53-3.34,1.8-.14,1.85.33,3.39,2.34,3.8A13.28,13.28,0,0,0,49,93.55Zm44.4-.1v0a24,24,0,0,0,4,0c2-.34,2.54-1.85,2.42-3.73-.14-2.29-1.77-2.07-3.25-1.89-2.14.26-4.27.64-6.39,1-1.23.23-2.23.85-2.31,2.22a2.23,2.23,0,0,0,2.07,2.39A21.25,21.25,0,0,0,93.36,93.45Z"/><path class="cls-2" d="M29.65,59.22c0-2.15,0-4.29,0-6.44.06-2,1.25-3,3.18-3s3,1,3.06,3q0,6.43,0,12.88c0,2-1,3.09-3,3s-3.12-1-3.19-3C29.59,63.51,29.65,61.37,29.65,59.22Z"/><path class="cls-2" d="M107.64,59c0-2,0-4,0-6s.69-3.23,2.82-3.26c1.89,0,3.33.76,3.38,2.79q.16,6.68,0,13.36c0,2-1.51,2.79-3.39,2.77a2.54,2.54,0,0,1-2.77-2.78c-.07-2.31,0-4.62,0-6.93Z"/></g></g></svg>