<svg xmlns="http://www.w3.org/2000/svg" viewBox="0 0 144 144"><defs><style>.cls-1{fill:#587d71;}.cls-2{fill:#fff;}</style></defs><g id="Laag_2" data-name="Laag 2"><g id="Laag_1-2" data-name="Laag 1"><circle class="cls-1" cx="72" cy="72" r="72"/><path class="cls-2" d="M83,61.69c0,18.32,0,36.1,0,53.89,0,1.61,1.13,4.11-1.17,4.71s-4.06-1-5.46-2.79c-1.54-1.92-1.67-4.24-1.67-6.57V84.88C71.06,86,71.89,87.76,71.82,89c-.37,7.57-.61,15.14-.93,22.72a10,10,0,0,1-.93,4.8c-1.33,2.32-3.43,4.18-5.93,3.75-2.69-.46-1.27-3.3-1.28-5-.12-17.78-.07-35.56-.53-53.37-2.11,6-1.18,12.16-1.54,18.26-.12,2,1.2,5.3-1,5.59-3,.37-4.05-2.72-4.32-5.57A69.53,69.53,0,0,1,55.67,61C57.06,53.34,60,50.56,67.75,49.63c17.41-2.11,22.72,2.5,22.91,20,0,3.46-.15,6.92-.25,10.38a6.75,6.75,0,0,1-1.7,4.52c-.8.88-1.86,1.75-3,1.47-1.47-.37-1-1.9-1-3-.09-5.44-.06-10.88-.21-16.31C84.5,65.19,85,63.42,83,61.69Z"/><path class="cls-2" d="M44.69,82.24c0,7.74,0,15.47,0,23.2a10.93,10.93,0,0,1-.91,5.31c-1,1.87-2.49,3.55-4.56,3.26-2.69-.39-1.35-2.93-1.36-4.43-.11-14.52-.05-29,0-43.55a17.09,17.09,0,0,0-.43-4.66c-2,5.91-1.2,12-1.46,18-.05,1.13.83,3-1.21,3.17-1.38.14-2.34-1-3.06-2.21-3.09-5.07-1.26-23.19,2.79-27.67A8.1,8.1,0,0,1,39.08,50c5.92-1,11.82-1.25,18.15.73-5.74,9.49-5.87,19.91-3.9,29.76,2,10.07,1,20,1.5,30,.07,1.18.74,2.92-.85,3.5-1.76.63-3.18-.58-4.27-1.86-1.49-1.73-1.65-3.91-1.73-6.07-.23-6.43-.38-12.86-.68-19.29-.07-1.53.43-3.29-.91-4.58Z"/><path class="cls-2" d="M97.55,82.12q0,12.31,0,24.63c0,3-.73,5.6-3.74,7-1.81.81-3.36.86-3.15-1.81.79-9.93-.74-19.83,1.4-29.91,2-9.52,2.44-19.76-2.62-29-1.37-2.51,0-2.76,1.79-3.09a41,41,0,0,1,15.33.12,8.53,8.53,0,0,1,6.49,5.6c2.88,7.58,3.72,15.34,1.53,23.27-.56,2-1.76,4.07-4,3.56-2-.47-.91-2.82-1-4.31-.36-5.64.54-11.37-1.72-17-.07,1.33-.2,2.67-.2,4,0,14.84.1,29.68,0,44.52,0,1.46,1.07,3.8-1.1,4.25-2.35.48-4-1.37-4.82-3.48a15.74,15.74,0,0,1-.81-4.84c-.29-6.26-.44-12.53-.68-18.79-.06-1.57.22-3.23-.69-4.65Z"/><path class="cls-2" d="M79.77,38.24c.08,5-2.35,7.78-6.8,7.88s-7.2-2.71-7.23-7.49c0-4.62,2.83-8,6.9-8.1S79.68,33.5,79.77,38.24Z"/><path class="cls-2" d="M47.37,32.17c3.72.13,6.41,3.34,6.05,7.51-.34,3.88-2.11,6.54-6.53,6.43-3.81-.09-6.08-2.65-6-6.85S43.6,32,47.37,32.17Z"/><path class="cls-2" d="M104.65,39.52c-.06,4.31-2.24,6.64-6.18,6.6s-6.28-2.7-6.15-7.19c.12-4,2-6.59,6.2-6.72C102.32,32.09,104.72,35.08,104.65,39.52Z"/></g></g></svg>