<svg xmlns="http://www.w3.org/2000/svg" viewBox="0 0 144 144"><defs><style>.cls-1{fill:#587d71;}.cls-2{fill:#fff;}</style></defs><g id="Laag_2" data-name="Laag 2"><g id="Laag_1-2" data-name="Laag 1"><circle class="cls-1" cx="72" cy="72" r="72"/><path class="cls-2" d="M64.3,84.61c-6.77-3.65-7-9.07-5.52-15.28,1.1-4.51,1.48-9.19,2.6-13.69C62.08,52.86,61,53,59,53.23a10.16,10.16,0,0,0-7.55,4.28C49.92,59.7,48.57,62,47,64.14c-1,1.35-1.28,4.35-3.24,3.65-2.47-.88-2.24-3.78-1.82-6.13,1.69-9.43,9.41-15.87,20.55-17.21C74.05,43.07,78.8,45.36,84,55.81c2.84,5.69,6.25,9.63,13.27,8.86,1.73-.2,3.57.53,5.39.83C100.81,70.56,98,71.7,90,70.77c-3.94-.45-3.94-.45-11.9-9.23-1,4.2-1.94,8.21-3,12.19-.52,2,.47,3.26,2,4,10.74,5.37,13.12,14.47,11.75,25.47-.57,4.61-.71,9.28-.9,13.93-.09,2.27-1,2.6-2.75,1.56a9.59,9.59,0,0,1-5.21-8.46c-.2-4.81-.66-9.62-1.07-14.42-.22-2.57-5.46-7.11-8-7.07-1.31,0-1.49,1.14-2,1.89-2.18,3.34-4.39,6.66-6.43,10.09C60.13,105,56.51,106.08,52,105a97.28,97.28,0,0,1-14.77-4.43c-1.28-.52-3.32-.41-3.23-2.32.08-1.72,1.53-3,3.05-3.7a6.22,6.22,0,0,1,4.38-.42c1.6.43,3.22.83,4.85,1.11,9.66,1.69,7.07,2.57,11.49-5.6C59.11,87.16,59.27,83.29,64.3,84.61Z"/><path class="cls-2" d="M108.65,113.2a8.85,8.85,0,0,1-8.63-8.6,8.57,8.57,0,1,1,17.13-.11A8.8,8.8,0,0,1,108.65,113.2Z"/><path class="cls-2" d="M84.17,33c0,5.48-3,9.28-7.55,9.27A7.29,7.29,0,0,1,69,34.8c-.1-5.5,2.84-9.26,7.36-9.41C81.22,25.22,84.13,28.06,84.17,33Z"/></g></g></svg>