<svg xmlns="http://www.w3.org/2000/svg" viewBox="0 0 144 144"><defs><style>.cls-1{fill:#587d71;}.cls-2{fill:#fff;}</style></defs><g id="Laag_2" data-name="Laag 2"><g id="Laag_1-2" data-name="Laag 1"><circle class="cls-1" cx="72" cy="72" r="72"/><path class="cls-2" d="M87,111.68c.9-2.19,1.76-4,2.35-5.82.45-1.45.62-3.75-.86-4-4.41-.76-6.8-5-11-5.81a9.19,9.19,0,0,0-8.64,2.73c-3.54,3.57-7,2.66-8.46-2.16-1.81-6-3.48-12.13-5.45-18.12-.83-2.53-.63-4.13,2.21-4.74,2.28-.49,3.11-2.21,2.46-4.11S57,68.77,55.71,69C47.87,70,48,70.05,46.58,62.34c-1.43-8-1.76-15.93,1.14-23.64,3.36-8.93,9.21-15.58,19-17.36,7.94-1.46,15.57,1.39,22.06,5.24C95,30.32,96.54,38,97.44,45a62.89,62.89,0,0,1-1.22,21.33c-.76,3.59-2.4,4.26-5.48,3.34a7.06,7.06,0,0,0-1.95-.4c-1.45,0-3.42-1.75-4.21.62-.7,2.1.79,3.36,2.73,4a11.86,11.86,0,0,0,1.35.64C99.57,76.8,104,84.42,105.4,94.66c.62,4.61,1.43,9.2,2.33,13.76.45,2.29.13,3.38-2.56,3.31C99.22,111.58,93.26,111.68,87,111.68ZM84.29,78.36c-1.05-2-3.75-2.17-4-4.5-.26-2.72-1.53-2.89-4-2.36-3,.65-6.12.35-8.33-2.85,10.27-.23,15.68-5.6,16.87-16.08.31-2.76-.16-4.69-2.56-6.39-3-2.14-5.84-4.69-5-9.28-2.4,1.69-4.38,3.21-6.49,4.54s-4.31,2.5-6.53,3.63c-6.78,3.44-7.07,4-4.84,11.52a17,17,0,0,0,2.29,5.48c4,5.27,3.8,10.24-.51,15.08-1.2,1.35-.27,2,.4,2.93,5.72,7.67,12.19,8.3,19.24,1.83C82.1,80.8,83.18,79.53,84.29,78.36Z"/><path class="cls-2" d="M53.37,111.68c-8,0-16-.11-24,0-3.73.08-5.85-1.25-6.87-5C20,97.65,17.18,88.6,14.59,79.49,13.3,75,14.16,73.86,19,73.82c8.84-.06,17.67.07,26.5-.06,3.77-.05,5.85,1.54,6.85,5.12,2,7,4.28,14,6,21.08.77,3.11,2.2,3.88,5.16,3.79,6.66-.19,13.33,0,20-.09,3.45-.08,3.66,1.32,2.25,3.87-1.72,3.12-4.42,4.22-7.89,4.18C69.7,111.62,61.54,111.68,53.37,111.68Z"/></g></g></svg>