<svg xmlns="http://www.w3.org/2000/svg" viewBox="0 0 144 144"><defs><style>.cls-1{fill:#587d71;}.cls-2{fill:#fff;}</style></defs><g id="Laag_2" data-name="Laag 2"><g id="Laag_1-2" data-name="Laag 1"><circle class="cls-1" cx="72" cy="72" r="72"/><path class="cls-2" d="M75.55,97.82c-7,0-14-.09-21,0-4.74.08-8.27-1.82-9.67-6.28s-1.58-9.48,3-12.64c2.39-1.65,2.54-3.33,2.16-5.82-1.33-8.88-2.63-17.77-3.59-26.69-.36-3.38-1.44-5.2-5-5.2A11.31,11.31,0,0,1,38,40.53c-1.87-.62-3.32-1.75-3.07-4s1.88-2.93,3.94-2.9,4.34.13,6.5,0c4.14-.31,6.52,1.68,6.6,5.64C52.05,43,54.05,43,56.79,43c14.66-.08,29.32,0,44,0,6.58,0,7.86,1.61,6.93,8.09-1.18,8.23-2.25,16.48-3.35,24.72-.85,6.37-2.69,8.06-8.95,8.07q-18,0-36,0h-3c-2.15,0-4.18.38-4.29,3-.13,3.08,2.21,3.3,4.46,3.37q10.49.33,21,.59c6.49.16,13,.27,19.47.46,2.37.07,5.08.13,5.1,3.37,0,3.39-2.69,3.17-5.07,3.16ZM66.19,64V59c0-10.18-.39-10.57-10.39-9.31-.79.1-1.7-.09-2.19.75C52,53.34,55.72,60.2,59,60.26,61.53,60.3,64.27,59.71,66.19,64Zm33-.18c.57-3.38,1-5.17,1.16-7,.8-7.42.78-7.2-7-7.27-3.66,0-4.25,1.63-3.86,4.52.34,2.57-1.62,6.51,3.74,6.17C95.45,60.17,98.05,59.55,99.18,63.86ZM83.19,62V56c0-6.39,0-6.14-6.34-6.43-3.83-.17-4.84,1.1-4.59,4.72.24,3.32-.6,6.88,4.79,6C79.14,60,81.38,59.94,83.19,62Zm-5.13,4.91c-3.63-.79-6.26-.46-5.83,4.61.3,3.49-.21,6.51,5,5.9,3.43-.4,6.53.23,6.06-5C83,68.81,83.42,65.46,78.06,66.88ZM60.82,67c-.89,1.13-5.29-2.79-4.56,2.36.46,3.24-1.54,8.13,5.09,8.06,4.08,0,5.1-1.39,4.94-5.19C66.14,68.74,66.46,65.55,60.82,67Zm33.57-.22c-4.26-.93-5.25,1.12-4.93,4.87.24,2.91-.72,5.92,4.23,5.75,6.18-.22,4-4.85,4.7-7.88C99.27,65.62,96.08,67.06,94.39,66.76Z"/><path class="cls-2" d="M59.89,105.83c-.44,3.76-2.4,6.1-6.41,6s-6.14-2.32-6.08-6.28,2.51-6.16,6.31-6.14S59.63,101.88,59.89,105.83Z"/><path class="cls-2" d="M100.49,106.11c-.46,3.53-2.42,5.84-6.45,5.72s-6.11-2.62-6.06-6.41,2.54-6.14,6.44-6S100.4,101.83,100.49,106.11Z"/></g></g></svg>